HIERARCHY
ROOT Hips
{
	OFFSET -0.001795 -0.223333 0.028219
	CHANNELS 6 Xposition Yposition Zposition Zrotation Yrotation Xrotation
	JOINT LeftUpLeg
	{
		OFFSET 0.069520 -0.091406 -0.006815
		CHANNELS 3 Zrotation Yrotation Xrotation
		JOINT LeftLeg
		{
			OFFSET 0.034277 -0.375199 -0.004496
			CHANNELS 3 Zrotation Yrotation Xrotation
			JOINT LeftFoot
			{
				OFFSET -0.013596 -0.397961 -0.043693
				CHANNELS 3 Zrotation Yrotation Xrotation
				JOINT LeftToe
				{
					OFFSET 0.026358 -0.055791 0.119288
					CHANNELS 3 Zrotation Yrotation Xrotation
					End Site
					{
						OFFSET 0.000000 0.000000 0.000000
					}
				}
			}
		}
	}
	JOINT RightUpLeg
	{
		OFFSET -0.067670 -0.090522 -0.004320
		CHANNELS 3 Zrotation Yrotation Xrotation
		JOINT RightLeg
		{
			OFFSET -0.038290 -0.382569 -0.008850
			CHANNELS 3 Zrotation Yrotation Xrotation
			JOINT RightFoot
			{
				OFFSET 0.015774 -0.398415 -0.042312
				CHANNELS 3 Zrotation Yrotation Xrotation
				JOINT RightToe
				{
					OFFSET -0.025372 -0.048144 0.123348
					CHANNELS 3 Zrotation Yrotation Xrotation
					End Site
					{
						OFFSET 0.000000 0.000000 0.000000
					}
				}
			}
		}
	}
	JOINT Spine
	{
		OFFSET -0.002533 0.108963 -0.026696
		CHANNELS 3 Zrotation Yrotation Xrotation
		JOINT Spine1
		{
			OFFSET 0.005487 0.135180 0.001092
			CHANNELS 3 Zrotation Yrotation Xrotation
			JOINT Spine2
			{
				OFFSET 0.001457 0.052922 0.025425
				CHANNELS 3 Zrotation Yrotation Xrotation
				JOINT Neck
				{
					OFFSET -0.002778 0.213870 -0.042857
					CHANNELS 3 Zrotation Yrotation Xrotation
					JOINT Head
					{
						OFFSET 0.005152 0.064970 0.051349
						CHANNELS 3 Zrotation Yrotation Xrotation
						End Site
						{
							OFFSET 0.000000 0.000000 0.000000
						}
					}
				}
				JOINT LeftShoulder
				{
					OFFSET 0.078845 0.121749 -0.034090
					CHANNELS 3 Zrotation Yrotation Xrotation
					JOINT LeftArm
					{
						OFFSET 0.090977 0.030469 -0.008868
						CHANNELS 3 Zrotation Yrotation Xrotation
						JOINT LeftForeArm
						{
							OFFSET 0.259612 -0.012772 -0.027456
							CHANNELS 3 Zrotation Yrotation Xrotation
							JOINT LeftHand
							{
								OFFSET 0.249234 0.008986 -0.001171
								CHANNELS 3 Zrotation Yrotation Xrotation
								End Site
								{
									OFFSET 0.000000 0.000000 0.000000
								}
							}
						}
					}
				}
				JOINT RightShoulder
				{
					OFFSET -0.081759 0.118833 -0.038615
					CHANNELS 3 Zrotation Yrotation Xrotation
					JOINT RightArm
					{
						OFFSET -0.096012 0.032551 -0.009143
						CHANNELS 3 Zrotation Yrotation Xrotation
						JOINT RightForeArm
						{
							OFFSET -0.253742 -0.013329 -0.021401
							CHANNELS 3 Zrotation Yrotation Xrotation
							JOINT RightHand
							{
								OFFSET -0.255298 0.007772 -0.005559
								CHANNELS 3 Zrotation Yrotation Xrotation
								End Site
								{
									OFFSET 0.000000 0.000000 0.000000
								}
							}
						}
					}
				}
			}
		}
	}
}
MOTION
Frames: 11
Frame Time: 0.050000
0.000000 0.860079 0.000000 -5.351002 -3.976116 -2.514114 28.703483 1.841388 -9.447389 -12.450298 3.788244 25.973725 12.394350 24.793988 1.742169 0.000000 0.000000 0.000000 -16.069406 -0.207923 -21.061415 8.895568 -1.615984 25.691189 -0.521228 -2.372220 2.016665 0.000000 0.000000 0.000000 1.707091 -1.316593 25.996001 -10.743755 3.256009 -22.966119 -2.940581 5.643531 20.305364 18.370854 -11.557396 -16.186881 0.000000 0.000000 0.000000 -24.057380 -22.696654 10.621988 -27.069913 -5.719349 -2.752299 1.156616 -22.067231 0.470898 0.000000 0.000000 0.000000 27.413036 12.890757 7.785762 26.779763 48.174374 5.352000 9.580846 75.054749 11.765134 0.000000 0.000000 0.000000
0.000598 0.859068 -0.003819 -5.270499 -6.548584 -2.172496 30.898203 2.445436 -9.257846 -16.153899 5.553521 26.526677 12.979196 25.703428 3.161669 0.000000 0.000000 0.000000 -16.075250 -0.012099 -24.298199 8.979234 -1.428239 28.637353 0.630279 -0.308946 3.196581 0.000000 0.000000 0.000000 2.200491 -1.214366 24.218634 -11.891416 3.591130 -21.882909 -3.598043 6.256958 18.921180 19.118044 -13.453382 -11.950511 0.000000 0.000000 0.000000 -27.490836 -22.642362 11.273998 -23.889893 -4.389472 -2.617602 4.229375 -20.558565 -0.097881 0.000000 0.000000 0.000000 28.112248 14.315269 8.435800 28.225249 46.693152 5.650438 5.579012 73.662791 8.324780 0.000000 0.000000 0.000000
0.001173 0.855943 -0.007547 -4.865796 -4.653120 -2.602362 30.778711 2.368369 -10.432395 -16.110080 5.471885 27.825904 11.599814 23.376755 1.160608 0.000000 0.000000 0.000000 -16.125308 -0.205002 -23.341835 7.536832 -1.117468 28.583674 0.193316 -0.597615 1.915065 0.000000 0.000000 0.000000 2.027392 -1.267992 24.193010 -9.858968 3.258884 -19.074278 -4.783966 3.199223 16.490090 19.411878 -13.967010 -10.944740 0.000000 0.000000 0.000000 -27.661766 -21.531099 11.148306 -24.956667 -4.402270 -2.752264 5.544497 -18.916639 -0.271007 0.000000 0.000000 0.000000 29.295651 15.833716 8.772787 27.205537 47.411995 5.785582 5.492593 70.660159 7.244484 0.000000 0.000000 0.000000
0.001675 0.853985 -0.010981 -4.982120 -4.693836 -3.174212 31.560158 2.484818 -10.386853 -16.192466 5.680914 29.215196 10.176220 20.741193 -0.331470 0.000000 0.000000 0.000000 -16.686036 -0.311993 -23.177775 7.513097 -1.107373 28.865371 1.421106 2.236175 2.218481 0.000000 0.000000 0.000000 3.284751 -1.505930 23.747897 -11.608073 3.891541 -18.193238 -4.811541 2.106086 16.422923 19.453289 -13.756424 -11.822640 0.000000 0.000000 0.000000 -28.074384 -21.495923 11.556906 -22.786201 -4.262850 -2.606261 5.429938 -17.721267 -0.240093 0.000000 0.000000 0.000000 27.985810 15.455408 7.924353 28.838786 48.020432 6.633376 4.649847 69.451710 6.275215 0.000000 0.000000 0.000000
0.002045 0.853153 -0.013339 -4.764128 -4.129278 -4.021639 30.946665 2.392708 -10.579443 -15.211001 5.397073 30.797167 9.488939 19.365892 -1.354157 0.000000 0.000000 0.000000 -16.749420 -0.383648 -22.348257 7.050295 -0.995476 29.241689 1.276340 2.231558 1.660087 0.000000 0.000000 0.000000 3.348761 -1.546355 23.903141 -10.417147 3.633957 -17.113612 -5.489179 2.299962 16.005176 19.925781 -13.974965 -11.964814 0.000000 0.000000 0.000000 -28.989800 -21.699180 11.545913 -21.547020 -4.919679 -2.320594 5.220294 -17.797150 -0.216148 0.000000 0.000000 0.000000 28.009556 15.522226 8.173223 27.610179 47.635829 6.102867 -1.175349 68.590386 2.251548 0.000000 0.000000 0.000000
0.002224 0.852367 -0.014763 -4.841687 -4.217354 -4.501062 31.288165 2.429815 -10.374562 -15.150007 5.509584 31.886143 8.791851 17.912765 -2.459819 0.000000 0.000000 0.000000 -16.593064 -0.357078 -22.017919 6.867179 -0.916489 29.548888 1.337625 2.622578 1.277169 0.000000 0.000000 0.000000 3.496339 -1.545941 23.513314 -10.260577 3.619344 -16.756264 -5.239197 2.216455 16.277114 20.383790 -14.098846 -12.781563 0.000000 0.000000 0.000000 -28.915482 -21.641086 11.552678 -21.669517 -5.194379 -2.316206 5.295355 -18.338167 -0.236507 0.000000 0.000000 0.000000 27.208271 15.341956 7.912301 27.093966 47.350785 5.852918 -2.538901 67.293053 1.220079 0.000000 0.000000 0.000000
0.002412 0.852659 -0.015706 -4.734546 -4.320393 -4.901749 30.789054 2.430543 -10.495406 -14.655456 5.442551 32.936089 8.908797 18.148334 -2.520642 0.000000 0.000000 0.000000 -16.221561 -0.291766 -21.621908 6.667167 -0.827634 29.488239 0.797113 1.390826 1.070619 0.000000 0.000000 0.000000 3.372241 -1.474006 22.884174 -9.791667 3.530110 -15.939373 -5.209794 2.276468 15.736877 19.803620 -13.861683 -11.972540 0.000000 0.000000 0.000000 -28.838880 -21.266219 11.244938 -21.864738 -4.850517 -2.353666 5.077921 -19.860442 -0.221061 0.000000 0.000000 0.000000 27.396422 15.225118 7.832734 26.591288 45.575318 5.333425 -3.595796 67.215578 0.462659 0.000000 0.000000 0.000000
0.002741 0.851483 -0.016689 -4.675956 -4.444011 -5.691744 30.554956 2.501527 -10.722058 -14.355390 5.476467 34.282183 9.236579 18.821635 -1.682031 0.000000 0.000000 0.000000 -15.916201 -0.252227 -21.301058 6.300765 -0.667272 30.315340 0.576403 1.073462 0.673967 0.000000 0.000000 0.000000 3.284946 -1.462805 23.224313 -9.204571 3.352526 -15.828488 -5.289060 2.441572 15.507265 19.977435 -13.701178 -12.815561 0.000000 0.000000 0.000000 -28.920136 -20.816589 10.876217 -21.554886 -4.126473 -2.403420 4.781403 -21.580930 -0.192176 0.000000 0.000000 0.000000 27.791123 15.133545 7.831615 25.668154 43.779280 4.674936 -2.034084 66.651735 1.389772 0.000000 0.000000 0.000000
0.003249 0.850040 -0.018183 -4.679149 -4.450035 -6.124575 30.447585 2.563140 -11.014235 -14.621746 5.697033 35.167147 9.893477 20.125067 -1.459809 0.000000 0.000000 0.000000 -15.747677 -0.245100 -21.535840 6.107639 -0.588916 30.670191 0.582103 0.520249 1.632229 0.000000 0.000000 0.000000 3.225023 -1.450428 23.289244 -9.072125 3.304072 -16.021041 -5.147073 2.576662 15.723003 19.853712 -13.448973 -13.381597 0.000000 0.000000 0.000000 -29.143748 -20.623127 10.729370 -21.438845 -3.835023 -2.430983 4.488430 -23.199442 -0.155783 0.000000 0.000000 0.000000 28.350445 14.581838 7.570113 25.113080 41.364551 4.002450 1.084114 66.733369 3.378889 0.000000 0.000000 0.000000
0.003833 0.847099 -0.020014 -4.559668 -4.326216 -6.660381 30.296958 2.635784 -11.485431 -14.715419 5.874232 36.491465 10.228333 20.769815 -1.552375 0.000000 0.000000 0.000000 -15.639884 -0.266234 -22.067402 6.088968 -0.580803 31.806732 0.109706 -0.973199 2.254635 0.000000 0.000000 0.000000 3.014097 -1.436575 23.787010 -8.789152 3.212557 -16.180493 -5.178718 2.762023 15.760419 19.917008 -13.029198 -14.800764 0.000000 0.000000 0.000000 -29.325620 -20.163668 10.335800 -21.020208 -3.575393 -2.406977 3.810418 -24.978783 -0.030487 0.000000 0.000000 0.000000 29.409728 14.236982 7.530099 24.115346 38.906018 3.251821 2.096439 66.045512 3.943157 0.000000 0.000000 0.000000
0.004374 0.844200 -0.021631 -4.525356 -3.736658 -7.049872 30.389755 2.748318 -12.469543 -14.690129 5.940870 38.127307 10.001036 20.280830 -1.593849 0.000000 0.000000 0.000000 -15.934907 -0.393468 -22.510757 6.034335 -0.622279 32.794453 0.264392 -1.038269 3.119912 0.000000 0.000000 0.000000 3.244930 -1.507043 23.747423 -8.943115 3.298487 -16.058806 -5.017111 2.598696 15.919552 19.591056 -12.765544 -14.943924 0.000000 0.000000 0.000000 -29.651503 -20.168864 10.314812 -20.414143 -3.575564 -2.335485 3.636015 -26.013307 -0.001479 0.000000 0.000000 0.000000 29.909119 13.732921 7.305553 24.428871 35.957598 2.769905 5.791195 65.789364 6.285724 0.000000 0.000000 0.000000
